<svg xmlns="http://www.w3.org/2000/svg" width="48" height="48" viewBox="0 0 48 48"><path fill="#ff00ff" d="m 20.949563,5.8399731 c -0.0903,-7.3e-5 -0.18336,0.00728 -0.275326,0.026427 -0.735622,0.149851 -1.209287,0.8678219 -1.059437,1.6034803 0.09208,0.4520682 0.397355,0.8050722 0.790728,0.9757462 l -0.03964,1.5307958 c -0.2231,0.1716766 -0.40327,0.3946676 -0.52642,0.6475566 -4.256748,1.153746 -7.379698,5.052497 -7.35883,9.671543 0.0028,0.588668 0.05823,1.166594 0.158589,1.726823 -0.779044,0.470712 -1.415701,1.078528 -1.903026,1.821541 -1.2180829,1.857209 -1.1781959,4.09689 -0.9779509,5.515263 -0.32448,0.334968 -0.524215,0.789706 -0.524215,1.292915 0,0.366254 0.105848,0.707637 0.288539,0.995567 l 0.229069,1.651942 c 0.07163,0.485758 0.5229659,0.821985 1.0087789,0.751078 0.25874,-0.03818 0.473082,-0.184116 0.607916,-0.385454 l 0.321584,0.5066 c 0.264782,0.413375 0.815634,0.533509 1.229036,0.268709 0.413393,-0.2648 0.5335,-0.815588 0.268718,-1.229036 0.320579,0.123942 0.699272,0.0535 0.955915,-0.207043 0.344756,-0.350023 0.340473,-0.912949 -0.0091,-1.257677 l -0.966942,-0.947112 0.907473,0.121147 c 0.484299,0.06406 0.928485,-0.275608 0.993359,-0.759899 0.06415,-0.484354 -0.276327,-0.929224 -0.75989,-0.993361 l -2.715808,-0.361221 c -0.01253,-0.0018 -0.02496,-0.0036 -0.03745,-0.0045 -0.122221,-1.1191 -0.09103,-2.700563 0.733454,-3.951433 0.237744,-0.360731 0.532616,-0.677492 0.883241,-0.949309 1.066917,2.710933 3.285185,4.840971 6.050495,5.788383 -0.516906,1.836359 -0.595386,3.57984 -0.574873,4.618819 l -0.0018,0 c 0,0 -0.115418,1.885112 -1.48454,5.627597 -0.08831,0.306244 -0.119054,0.491444 -0.116741,0.70042 l 0,1.198207 c 7.76e-4,0.181072 0.149313,0.326757 0.330385,0.325982 l 0.0903,0 4.306049,-0.01977 0.0903,0 c 0.180298,-7.74e-4 0.326759,-0.150097 0.325984,-0.330394 l -0.0063,-1.196001 c -0.01431,-0.224841 -0.02788,-0.467879 -0.138761,-0.733454 -1.402398,-3.72959 -1.530807,-5.581349 -1.530807,-5.581349 -0.03062,-0.855547 0.0018,-2.465188 0.502188,-4.178296 0.485195,0.07025 0.981651,0.105793 1.486747,0.103521 0.61906,-0.0028 1.225317,-0.06123 1.812728,-0.171803 0.53095,1.725984 0.579986,3.35827 0.557249,4.224552 -1.36e-4,0.0055 1.46e-4,0.01225 0,0.01758 l -0.486769,7.424908 c -0.01513,0.224065 0.15478,0.403842 0.378845,0.403068 l 2.942646,-0.01322 0,-0.0045 2.980098,-0.01322 c 0.16824,-7.75e-4 0.314638,-0.140119 0.325983,-0.30836 l 0.06169,-0.9383 c 0.01959,-0.306245 0.02297,-0.596671 -0.231275,-0.797334 -2.418731,-1.907758 -3.99984,-4.564196 -4.107817,-5.768564 0.0117,-1.060038 -0.08939,-2.856172 -0.654164,-4.733348 2.711298,-1.057697 4.845135,-3.267051 5.801598,-6.024068 0.04,-0.165206 0.03345,-0.461236 -0.44712,-0.563856 0.01267,-0.04949 0.02342,-0.09847 0.03526,-0.147572 1.780816,-0.37408 3.193957,-1.192419 4.213545,-2.447071 1.343764,-1.653001 1.70394,-3.714418 1.751043,-5.261973 0.351217,-0.338505 0.570471,-0.81505 0.570471,-1.341369 l 0.685011,-1.52419 c 0.198403,-0.448852 -0.0028,-0.972619 -0.451532,-1.171771 -0.239092,-0.105683 -0.500876,-0.09859 -0.722453,0 l -0.0018,-0.596907 c -0.0037,-0.4911959 -0.403208,-0.8871011 -0.894334,-0.8833282 -0.491125,0.00358 -0.886968,0.4053555 -0.883231,0.8964542 -0.205103,-0.275782 -0.562452,-0.41846 -0.91848,-0.334796 -0.478296,0.112403 -0.7754,0.589982 -0.662975,1.068249 l 0.310564,1.312746 -0.70042,-0.581489 c -0.374901,-0.312314 -0.933579,-0.262586 -1.246669,0.112334 -0.312304,0.375685 -0.260425,0.934354 0.114538,1.24666 l 2.103464,1.753258 c 0.06453,0.05377 0.136114,0.0953 0.209248,0.127757 0.189091,0.159064 0.411964,0.280584 0.654164,0.354616 -0.09252,1.172736 -0.419372,2.572801 -1.321549,3.682713 -0.620109,0.76307 -1.46144,1.310979 -2.513149,1.640925 0.09516,-1.464128 -0.11674,-2.455874 -0.11674,-2.455874 l 0.594693,-0.0045 0.0154,-0.01102 C 31.413382,13.904604 27.564597,10.483217 22.88854,10.28434 22.69842,10.045675 22.450516,9.8583161 22.168291,9.7403047 L 21.796051,8.2579662 C 22.180338,7.9493794 22.383563,7.4437908 22.278419,6.9276051 22.147303,6.2838945 21.582565,5.8401006 20.950264,5.8395266 z"/></svg>